<?xml version="1.0" encoding="utf-8"?>
<!-- Generator: Adobe Illustrator 26.3.1, SVG Export Plug-In . SVG Version: 6.00 Build 0)  -->
<svg version="1.1" id="Layer_1" xmlns="http://www.w3.org/2000/svg" xmlns:xlink="http://www.w3.org/1999/xlink" x="0px" y="0px"
	 viewBox="0 0 325.8 289.7" style="enable-background:new 0 0 325.8 289.7;" xml:space="preserve">
<style type="text/css">
	.st0{fill:#1A171B;}
	.st1{fill:#E0091D;}
</style>
<path class="st0" d="M185,35.1c-0.4,0.2-0.7,0.5-1.1,0.7l0.6-1.8L185,35.1z"/>
<path class="st0" d="M315.6,93c0-51.2-41.5-92.6-92.7-92.6c-31.2,0-60.3,15.7-77.4,41.8l-13-34.8C130.9,3,126.7,0,122,0.1h-20.3
	C97,0,92.8,3,91.2,7.4L13.9,214.8c-1.2,2.8,0.1,6,2.9,7.2c0.7,0.3,1.5,0.5,2.2,0.4h18.4c4.8-0.1,9-3.1,10.5-7.7l15.2-43.2
	c0.6-1.7,2.2-2.8,4-2.8h89.3c1.8,0,3.4,1.1,4,2.8l15.2,43.2c1.6,4.6,5.9,7.7,10.8,7.7h18.1c3.2,0,5.8-2.7,5.7-5.9
	c0-0.6-0.1-1.2-0.3-1.8L197.7,182c13,3.7,26.7,4.4,40,2.3l10.7,30.4c1.6,4.6,5.9,7.7,10.8,7.7h18.1c3.2,0,5.8-2.7,5.7-5.8
	c0-0.6-0.1-1.2-0.3-1.8l-15.2-40.7C297.2,157.8,315.6,126.7,315.6,93z M75.6,137.2L110,39.4c0.4-1,1.5-1.6,2.5-1.3
	c0.6,0.2,1.1,0.7,1.3,1.3l16.8,47.4l1.9,5.4l16,45l0,0c0.4,1-0.2,2.2-1.2,2.6c-0.2,0.1-0.5,0.1-0.7,0.1h-69c-1.1,0.1-2-0.8-2.1-1.9
	C75.4,137.7,75.5,137.4,75.6,137.2L75.6,137.2z M259.3,151.8c-22.3,13.8-50.6,13.8-72.9-0.1c-5.3-3.3-10.1-7.3-14.3-11.9
	c-16.8-18.1-22.6-43.8-15.2-67.3c4.6-14.9,14.2-27.9,27.1-36.7l0.6-1.8l0.4,1.1c11.3-7.4,24.4-11.3,37.9-11.3
	c38.2,0,69.2,31,69.2,69.2C292.1,116.9,279.7,139.2,259.3,151.8L259.3,151.8z"/>
<g>
	<path class="st0" d="M19.7,281.3l-2-5.6H6.2l-2,5.6c-0.2,0.5-0.7,0.9-1.3,0.9H0.7c-0.4,0-0.7-0.3-0.7-0.6c0-0.1,0-0.2,0.1-0.3
		l9.4-25.2c0.2-0.5,0.7-0.9,1.3-0.9h2.5c0.6,0,1.1,0.4,1.3,0.9l9.4,25.2c0.1,0.4-0.1,0.8-0.4,0.9c-0.1,0-0.2,0-0.2,0H21
		C20.4,282.3,19.9,281.9,19.7,281.3z M16.5,272.2L12,259.3l-4.5,12.9H16.5z"/>
	<path class="st0" d="M40.3,276.9c0.3-0.4,0.9-0.5,1.3-0.3l1.2,0.6c0.5,0.3,0.7,0.9,0.4,1.5c0,0,0,0.1-0.1,0.1
		c-1.9,2.4-4.9,3.9-8,3.8c-5.7,0-10.2-4.6-10.2-10.2c0-5.7,4.6-10.2,10.2-10.2c3.1,0,6.1,1.4,8,3.8c0.3,0.5,0.3,1.1-0.2,1.5
		c0,0-0.1,0-0.1,0.1l-1.2,0.7c-0.4,0.2-1,0.1-1.3-0.3c-1.2-1.6-3.2-2.5-5.2-2.4c-3.9,0-6.6,2.9-6.6,6.9c-0.2,3.6,2.6,6.7,6.2,6.9
		c0.1,0,0.3,0,0.4,0C37.1,279.4,39.1,278.5,40.3,276.9z"/>
	<path class="st0" d="M61,276.9c0.3-0.4,0.9-0.5,1.3-0.3l1.2,0.6c0.5,0.3,0.7,0.9,0.4,1.4c0,0,0,0.1-0.1,0.1c-1.9,2.4-4.9,3.9-8,3.8
		c-5.7,0-10.2-4.6-10.2-10.2c0-5.7,4.6-10.2,10.2-10.2c3.1,0,6.1,1.4,8,3.8c0.4,0.4,0.3,1.1-0.1,1.4c-0.1,0.1-0.1,0.1-0.2,0.1
		l-1.1,0.7c-0.4,0.2-1,0.1-1.3-0.3c-1.2-1.6-3.2-2.5-5.2-2.4c-3.8,0.1-6.8,3.4-6.7,7.2c0.1,3.6,3,6.5,6.7,6.7
		C57.8,279.4,59.7,278.5,61,276.9z"/>
	<path class="st0" d="M67.5,257.2c0-1.1,0.9-2,2-2s2,0.9,2,2s-0.9,2-2,2S67.5,258.3,67.5,257.2z M67.8,281.2v-17.5c0-0.6,0.4-1,1-1
		h1.4c0.6,0,1,0.4,1,1v17.5c0,0.6-0.4,1-1,1h-1.4C68.3,282.3,67.8,281.8,67.8,281.2C67.8,281.3,67.8,281.3,67.8,281.2z"/>
	<path class="st0" d="M93,255.2h1.5c0.6,0,1,0.4,1,1v25c0,0.6-0.4,1-1,1H93c-0.6,0-1-0.4-1-1v-1.7c-1.7,2.1-4.4,3.3-7.1,3.2
		c-6.1,0-9.7-5.1-9.7-10.2s3.6-10.3,9.7-10.3c2.8-0.1,5.4,1.1,7.1,3.2v-9.2C92,255.7,92.4,255.2,93,255.2z M92,272.5
		c0-3.9-2.5-6.9-6.8-6.9c-4,0-6.5,3-6.5,6.9s2.5,6.9,6.5,6.9C89.5,279.4,92,276.3,92,272.5L92,272.5z"/>
	<path class="st0" d="M118.2,272.6c0,0.7-0.6,1.3-1.4,1.4h-14.3c0.6,3.2,2.9,5.4,6.8,5.4c1.7,0,3.3-0.6,4.6-1.7
		c0.3-0.3,0.9-0.3,1.2-0.1l1.2,0.7c0.5,0.3,0.7,0.9,0.4,1.4c0,0.1-0.1,0.2-0.2,0.2c-1.9,1.8-4.5,2.8-7.2,2.7
		c-6.5,0-10.5-4.6-10.5-10.2s4.1-10.2,9.9-10.2C113.7,262.2,118.4,266.1,118.2,272.6z M114.5,270.9c-0.5-3.3-2.5-5.4-5.8-5.4
		c-3.2-0.1-5.9,2.3-6.2,5.4H114.5z"/>
	<path class="st0" d="M138.6,270v11.2c0,0.6-0.4,1-1,1c0,0,0,0-0.1,0H136c-0.6,0-1-0.4-1-1V271c0-2.7-1.2-5.5-4.9-5.5
		s-5.2,3.2-5.2,5.5v10.2c0,0.6-0.4,1-1,1h-1.5c-0.6,0-1-0.4-1-1v-17.5c0-0.6,0.4-1,1-1h1.5c0.6,0,1,0.4,1,1v1.7c1.3-2,3.6-3.3,6-3.2
		c4.2,0,7.6,3.4,7.5,7.6C138.6,269.9,138.6,269.9,138.6,270z"/>
	<path class="st0" d="M151.9,266h-3.5v8.6c0,2.8,0.1,4.6,3.1,4.6h0.5c0.5,0,0.9,0.3,0.9,0.8c0,0,0,0,0,0.1v1.4
		c0,0.4-0.3,0.8-0.8,0.9c-0.4,0-0.7,0.1-1.1,0.1c-4.3,0-6.2-2.3-6.2-6.6V266h-2.3c-0.6,0-1-0.4-1-0.9c0,0,0,0,0-0.1v-1.3
		c0-0.6,0.4-1,1-1c0,0,0,0,0.1,0h2.3v-6.5c0-0.6,0.4-1,1-1h1.4c0.6,0,1,0.4,1,1v6.4h3.5c0.6,0,1,0.4,1,1v1.3
		C152.9,265.5,152.5,266,151.9,266L151.9,266z"/>
	<path class="st0" d="M172.6,262.7h1.5c0.6,0,1,0.4,1,1v17.6c0,0.6-0.4,1-1,1h-1.5c-0.6,0-1-0.4-1-1v-1.7c-1.7,2.1-4.4,3.3-7.1,3.2
		c-6.1,0-9.7-5.1-9.7-10.2s3.6-10.3,9.7-10.3c2.7-0.1,5.4,1.1,7.1,3.2v-1.7c0-0.6,0.4-1,0.9-1.1
		C172.5,262.7,172.5,262.7,172.6,262.7z M171.6,272.5c0-3.9-2.4-6.9-6.8-6.9c-4.1,0-6.5,3-6.5,6.9s2.4,6.9,6.5,6.9
		C169.1,279.4,171.5,276.3,171.6,272.5L171.6,272.5z"/>
	<path class="st0" d="M180.4,255.2h1.5c0.6,0,1,0.4,1,1v25c0,0.6-0.4,1-1,1h-1.5c-0.6,0-1-0.4-1-1v-25
		C179.4,255.7,179.9,255.2,180.4,255.2z"/>
	<path class="st0" d="M225.6,278.2l2,2c0.4,0.4,0.4,1,0,1.4l0,0l-1,1c-0.4,0.4-1,0.4-1.4,0l0,0l-2.2-2.2c-2.3,1.5-5,2.2-7.7,2.2
		c-8,0-13.7-6-13.7-14s5.7-14,13.7-14s13.7,6.1,13.7,14C229.1,272.2,227.8,275.6,225.6,278.2z M220.3,277.8l-3.4-3.4
		c-0.4-0.4-0.4-1-0.1-1.4c0,0,0,0,0.1-0.1l1-1c0.4-0.4,1-0.4,1.4-0.1c0,0,0,0,0.1,0.1l3.5,3.5c1.5-1.9,2.2-4.3,2.2-6.8
		c0-5.2-3.5-10.4-9.8-10.4s-9.8,5.1-9.8,10.4s3.5,10.4,9.8,10.4C217.1,279.1,218.8,278.7,220.3,277.8L220.3,277.8z"/>
	<path class="st0" d="M249.3,262.7c0.6,0,1,0.4,1,1v17.6c0,0.6-0.4,1-1,1h-1.5c-0.6,0-1-0.4-1-1v-1.7c-1.3,2.1-3.6,3.3-6,3.2
		c-4.2,0-7.6-3.5-7.5-7.7V275v-11.2c0-0.6,0.4-1,1-1h1.5c0.6,0,1,0.4,1,1V274c0,2.7,1.2,5.5,4.9,5.5s5.2-3.2,5.2-5.5v-10.2
		c0-0.6,0.4-1,1-1L249.3,262.7z"/>
	<path class="st0" d="M272,262.7h1.5c0.6,0,1,0.4,1,1v17.6c0,0.6-0.4,1-1,1H272c-0.6,0-1-0.4-1-1v-1.7c-1.7,2.1-4.4,3.3-7.1,3.2
		c-6.1,0-9.7-5.1-9.7-10.2s3.6-10.3,9.7-10.3c2.7-0.1,5.4,1.1,7.1,3.2v-1.7c0-0.6,0.4-1,0.9-1.1H272z M271,272.5
		c0-3.9-2.4-6.9-6.8-6.9c-4,0-6.5,3-6.5,6.9s2.4,6.9,6.5,6.9C268.5,279.4,271,276.3,271,272.5L271,272.5z"/>
	<path class="st0" d="M280.6,255.2h1.5c0.6,0,1,0.4,1,1v25c0,0.6-0.4,1-1,1h-1.5c-0.6,0-1-0.4-1-1v-25
		C279.6,255.7,280,255.2,280.6,255.2z"/>
	<path class="st0" d="M287.8,257.2c0-1.1,0.9-2,2-2s2,0.9,2,2s-0.9,2-2,2S287.8,258.3,287.8,257.2z M288.1,281.2v-17.5
		c0-0.6,0.4-1,1-1h1.4c0.6,0,1,0.4,1,1v17.5c0,0.6-0.4,1-1,1h-1.4C288.5,282.2,288.1,281.8,288.1,281.2z"/>
	<path class="st0" d="M305.8,266h-3.5v8.6c0,2.8,0.1,4.6,3.1,4.6h0.5c0.5,0,0.9,0.3,0.9,0.8c0,0,0,0,0,0.1v1.4
		c0,0.4-0.3,0.8-0.8,0.9c-0.4,0-0.7,0.1-1.1,0.1c-4.3,0-6.2-2.3-6.2-6.6V266h-2.3c-0.6,0-1-0.4-1-1v-1.3c0-0.6,0.4-1,1-1h2.3v-6.5
		c0-0.6,0.4-1,1-1h1.4c0.6,0,1,0.4,1,1v6.4h3.5c0.6,0,1,0.4,1,1v1.3C306.8,265.5,306.4,266,305.8,266L305.8,266z"/>
	<path class="st0" d="M323.2,262.7h1.7c0.5,0,0.9,0.4,0.8,0.9c0,0.1,0,0.2-0.1,0.3c-1.5,3.8-6.2,15.9-7.3,18.4
		c-1.9,4.5-3.7,7.5-7.3,7.5c-0.3,0-0.7,0-1,0c-0.4,0-0.8-0.4-0.8-0.9v-1.5c0-0.5,0.3-0.8,0.8-0.8l0,0c2.1-0.1,3.5-1.2,5-5.2
		c-0.3-0.7-4.8-13.4-6.6-17.4c-0.2-0.5,0-1,0.5-1.1c0.1,0,0.2-0.1,0.3-0.1h1.7c0.5,0,1,0.3,1.2,0.9l4.8,13l4.8-12.9
		C322.1,263.1,322.6,262.7,323.2,262.7z"/>
</g>
<g>
	<path class="st0" d="M250.7,113.5c-2.4,8-7.7,14.4-15.2,17.6l-2.4,0.8c-7.8,2.2-15.9,0.5-22.8-4.3c7.7-5,12.7-13.3,13.4-22.5
		c0.1-1.2,0.1-2.5,0-3.7c0.7,1,1.5,2,2.4,2.9C232.4,111,241.5,114.4,250.7,113.5z"/>
	<path class="st1" d="M210.4,66.9l9.4,26.9c4.2,12.2-0.6,25.6-11.6,32.3c-5.7-4.6-10-10.7-12.3-17.7c-3.7-10.7-2.8-21.6,1.7-29.8
		c0.5-1,1.1-1.9,1.7-2.7c0.4-0.7,1-1.4,1.5-2.1C203.4,70.7,206.7,68.3,210.4,66.9z"/>
	<path class="st1" d="M250,89.5c2.5,6.9,3,14.3,1.4,21.5c-12.8,1.6-24.9-5.9-29.2-18l-9.4-27c3.8-1.2,7.8-1.4,11.7-0.5
		c0.9,0.1,1.8,0.3,2.6,0.7c1,0.2,2,0.5,2.9,1C238.7,70.8,246.3,78.8,250,89.5z"/>
	<path class="st0" d="M228.6,62.2c0.3,1,0.6,2,0.6,3c-12.1-5.6-26.4-0.5-32.4,11.5c-0.6-0.9-1.1-1.8-1.4-2.8
		c-3.4-9.1,1.2-19.2,10.2-22.6s19.2,1.2,22.6,10.2C228.4,61.7,228.5,61.9,228.6,62.2L228.6,62.2z"/>
	<path class="st0" d="M257,102.6l-2.7,0.9c0,0.9,0,1.7-0.1,2.5l2.8-1c1.2-0.4,2.5-0.4,3.6,0l2.1,0.8c0.6,0.2,1.3-0.1,1.5-0.7
		c0-0.1,0.1-0.2,0.1-0.3l0,0c0.1-0.5-0.3-1-0.8-1.2l-2.9-1C259.4,102.2,258.1,102.2,257,102.6z"/>
	<path class="st0" d="M251.8,88.3c0.2,0.5,0.3,1,0.5,1.5l9.1-3.2c0.6-0.2,0.9-0.9,0.7-1.5l0,0c-0.2-0.6-0.9-0.9-1.5-0.7l0,0
		l-9.1,3.2C251.6,87.8,251.7,88.1,251.8,88.3z"/>
	<path class="st0" d="M188.2,93l3.2-1.1c0.1-0.9,0.1-1.7,0.2-2.6l-3.5,1.2c-1.2,0.4-2.5,0.4-3.7,0L183,90c-0.6-0.2-1.3,0.1-1.5,0.7
		c0,0.1,0,0.1-0.1,0.2l0,0c-0.1,0.6,0.2,1.1,0.8,1.3l2.3,0.8C185.7,93.4,187,93.4,188.2,93z"/>
	<path class="st0" d="M200.2,124.8l2.7-1c-0.6-0.6-1.1-1.2-1.7-1.9l-2.6,0.9c-1.2,0.4-2.2,1.2-2.8,2.3l-1.7,2.7
		c-0.3,0.5-0.2,1.1,0.2,1.4l0,0c0.4,0.5,1.2,0.5,1.6,0c0.1-0.1,0.1-0.1,0.2-0.2l1.2-2C198,126,199,125.2,200.2,124.8z"/>
	<path class="st0" d="M193.8,108.7c-0.1-0.3-0.2-0.6-0.3-0.9l-9.2,3.2c-0.6,0.2-0.9,0.9-0.7,1.5l0,0c0.2,0.6,0.9,0.9,1.5,0.7
		l9.2-3.2C194.2,109.5,194,109.1,193.8,108.7z"/>
	<path class="st0" d="M244.2,71.2l-2.7,1.2c0.6,0.6,1.2,1.2,1.8,1.8l2.6-1.1c1.1-0.5,2.1-1.4,2.7-2.5l1.5-2.8
		c0.2-0.5,0.1-1.1-0.3-1.4l0,0c-0.5-0.4-1.2-0.4-1.6,0.1c-0.1,0.1-0.1,0.2-0.2,0.2l-1.1,2.1C246.4,69.9,245.4,70.7,244.2,71.2z"/>
</g>
</svg>
